<svg id="Layer_1" data-name="Layer 1" xmlns="http://www.w3.org/2000/svg" xmlns:xlink="http://www.w3.org/1999/xlink" width="161.11" height="34.7" viewBox="0 0 161.11 34.7">
  <defs>
    <style>
      .cls-1 {
        fill: url(#linear-gradient);
      }

      .cls-2 {
        fill: url(#linear-gradient-2);
      }

      .cls-3 {
        fill: #fffeff;
      }
    </style>
    <linearGradient id="linear-gradient" x1="23.65" y1="22.62" x2="42.16" y2="22.62" gradientUnits="userSpaceOnUse">
      <stop offset="0" stop-color="#3591cf"/>
      <stop offset="0.04" stop-color="#3595cd"/>
      <stop offset="0.46" stop-color="#30bbb4"/>
      <stop offset="0.79" stop-color="#2dd3a5"/>
      <stop offset="1" stop-color="#2cdc9f"/>
    </linearGradient>
    <linearGradient id="linear-gradient-2" x1="4.89" y1="22.65" x2="60.96" y2="22.65" xlink:href="#linear-gradient"/>
  </defs>
  <title>cryptowatcher_LOGO_001_i_mobile</title>
  <g>
    <path class="cls-1" d="M39.52,19.74a3.05,3.05,0,0,1-2.15-5.22A9.24,9.24,0,1,0,41.44,19,3,3,0,0,1,39.52,19.74Z" transform="translate(-4.89 -5.3)"/>
    <path class="cls-2" d="M32.92,40c-6.63,0-11.47-1.08-15.69-3.5C12.8,34,9.07,29.89,5.48,23.68l-.6-1,.6-1C9.07,15.41,12.8,11.34,17.23,8.8c4.23-2.42,9.07-3.5,15.69-3.5S44.39,6.38,48.62,8.8c4.43,2.54,8.17,6.61,11.75,12.82l.6,1-.6,1C56.78,29.89,53.05,34,48.62,36.5,44.39,38.92,39.55,40,32.92,40ZM9.67,22.65c5.89,9.74,12.1,13.22,23.26,13.22s17.37-3.49,23.26-13.22C50.29,12.91,44.08,9.42,32.92,9.42S15.56,12.91,9.67,22.65Z" transform="translate(-4.89 -5.3)"/>
    <path class="cls-3" d="M166,10a3.56,3.56,0,1,0-7.1.39v10.9h0V22.6a9.21,9.21,0,0,1-18.43,0V21.27h0V10.07s0-.08,0-.12a3.55,3.55,0,0,0-7.09-.07h0V22.6a16.33,16.33,0,0,0,32.67,0V10.2C166,10.13,166,10.05,166,10Z" transform="translate(-4.89 -5.3)"/>
    <path class="cls-3" d="M140.36,10a3.56,3.56,0,1,0-7.1.39v10.9h0V22.6a9.21,9.21,0,0,1-18.43,0V21.27h0V10.07s0-.08,0-.12a3.55,3.55,0,0,0-7.09-.07h0V22.6a16.33,16.33,0,0,0,32.67,0V10.2C140.35,10.13,140.36,10.05,140.36,10Z" transform="translate(-4.89 -5.3)"/>
    <path class="cls-3" d="M96.31,39a3.56,3.56,0,0,0,0-7.12l-.39,0H87v0H85.71a9.21,9.21,0,0,1,0-18.43H87v0h9.29a3.55,3.55,0,0,0,.07-7.09H85.71a16.33,16.33,0,0,0,0,32.67h10.6Z" transform="translate(-4.89 -5.3)"/>
  </g>
</svg>
